<?xml version="1.0" encoding="UTF-8" standalone="no"?>
<svg
   version="1.2"
   width="145.82617mm"
   height="149.01967mm"
   viewBox="0 0 14582.617 14901.967"
   preserveAspectRatio="xMidYMid"
   fill-rule="evenodd"
   stroke-width="28.222"
   stroke-linejoin="round"
   xml:space="preserve"
   id="svg1820"
   sodipodi:docname="gorila10b.svg"
   inkscape:version="1.2.2 (732a01da63, 2022-12-09, custom)"
   xmlns:inkscape="http://www.inkscape.org/namespaces/inkscape"
   xmlns:sodipodi="http://sodipodi.sourceforge.net/DTD/sodipodi-0.dtd"
   xmlns="http://www.w3.org/2000/svg"
   xmlns:svg="http://www.w3.org/2000/svg"
   xmlns:ooo="http://xml.openoffice.org/svg/export"><sodipodi:namedview
   id="namedview1822"
   pagecolor="#ffffff"
   bordercolor="#000000"
   borderopacity="0.25"
   inkscape:showpageshadow="2"
   inkscape:pageopacity="0.0"
   inkscape:pagecheckerboard="0"
   inkscape:deskcolor="#d1d1d1"
   inkscape:document-units="mm"
   showgrid="false"
   inkscape:zoom="0.8271663"
   inkscape:cx="250.25197"
   inkscape:cy="284.10248"
   inkscape:window-width="1920"
   inkscape:window-height="1031"
   inkscape:window-x="0"
   inkscape:window-y="25"
   inkscape:window-maximized="1"
   inkscape:current-layer="svg1820" />
 <defs
   class="ClipPathGroup"
   id="defs1755">
  <clipPath
   id="presentation_clip_path"
   clipPathUnits="userSpaceOnUse">
   <rect
   x="0"
   y="0"
   width="26485"
   height="26485"
   id="rect1749" />
  </clipPath>
  <clipPath
   id="presentation_clip_path_shrink"
   clipPathUnits="userSpaceOnUse">
   <rect
   x="26"
   y="26"
   width="26433"
   height="26433"
   id="rect1752" />
  </clipPath>
 </defs>
 <defs
   class="TextShapeIndex"
   id="defs1759">
  <g
   ooo:slide="id1"
   ooo:id-list="id3 id4"
   id="g1757" />
 </defs>
 <defs
   class="EmbeddedBulletChars"
   id="defs1791">
  <g
   id="bullet-char-template-57356"
   transform="matrix(4.8828125e-4,0,0,-4.8828125e-4,0,0)">
   <path
   d="M 580,1141 1163,571 580,0 -4,571 Z"
   id="path1761" />
  </g>
  <g
   id="bullet-char-template-57354"
   transform="matrix(4.8828125e-4,0,0,-4.8828125e-4,0,0)">
   <path
   d="M 8,1128 H 1137 V 0 H 8 Z"
   id="path1764" />
  </g>
  <g
   id="bullet-char-template-10146"
   transform="matrix(4.8828125e-4,0,0,-4.8828125e-4,0,0)">
   <path
   d="M 174,0 602,739 174,1481 1456,739 Z M 1358,739 309,1346 659,739 Z"
   id="path1767" />
  </g>
  <g
   id="bullet-char-template-10132"
   transform="matrix(4.8828125e-4,0,0,-4.8828125e-4,0,0)">
   <path
   d="M 2015,739 1276,0 H 717 l 543,543 H 174 v 393 h 1086 l -543,545 h 557 z"
   id="path1770" />
  </g>
  <g
   id="bullet-char-template-10007"
   transform="matrix(4.8828125e-4,0,0,-4.8828125e-4,0,0)">
   <path
   d="m 0,-2 c -7,16 -16,29 -25,39 l 381,530 c -94,256 -141,385 -141,387 0,25 13,38 40,38 9,0 21,-2 34,-5 21,4 42,12 65,25 l 27,-13 111,-251 280,301 64,-25 24,25 c 21,-10 41,-24 62,-43 C 886,937 835,863 770,784 769,783 710,716 594,584 L 774,223 c 0,-27 -21,-55 -63,-84 l 16,-20 C 717,90 699,76 672,76 641,76 570,178 457,381 L 164,-76 c -22,-34 -53,-51 -92,-51 -42,0 -63,17 -64,51 -7,9 -10,24 -10,44 0,9 1,19 2,30 z"
   id="path1773" />
  </g>
  <g
   id="bullet-char-template-10004"
   transform="matrix(4.8828125e-4,0,0,-4.8828125e-4,0,0)">
   <path
   d="M 285,-33 C 182,-33 111,30 74,156 52,228 41,333 41,471 c 0,78 14,145 41,201 34,71 87,106 158,106 53,0 88,-31 106,-94 l 23,-176 c 8,-64 28,-97 59,-98 l 735,706 c 11,11 33,17 66,17 42,0 63,-15 63,-46 V 965 c 0,-36 -10,-64 -30,-84 L 442,47 C 390,-6 338,-33 285,-33 Z"
   id="path1776" />
  </g>
  <g
   id="bullet-char-template-9679"
   transform="matrix(4.8828125e-4,0,0,-4.8828125e-4,0,0)">
   <path
   d="M 813,0 C 632,0 489,54 383,161 276,268 223,411 223,592 c 0,181 53,324 160,431 106,107 249,161 430,161 179,0 323,-54 432,-161 108,-107 162,-251 162,-431 0,-180 -54,-324 -162,-431 C 1136,54 992,0 813,0 Z"
   id="path1779" />
  </g>
  <g
   id="bullet-char-template-8226"
   transform="matrix(4.8828125e-4,0,0,-4.8828125e-4,0,0)">
   <path
   d="m 346,457 c -73,0 -137,26 -191,78 -54,51 -81,114 -81,188 0,73 27,136 81,188 54,52 118,78 191,78 73,0 134,-26 185,-79 51,-51 77,-114 77,-187 0,-75 -25,-137 -76,-188 -50,-52 -112,-78 -186,-78 z"
   id="path1782" />
  </g>
  <g
   id="bullet-char-template-8211"
   transform="matrix(4.8828125e-4,0,0,-4.8828125e-4,0,0)">
   <path
   d="M -4,459 H 1135 V 606 H -4 Z"
   id="path1785" />
  </g>
  <g
   id="bullet-char-template-61548"
   transform="matrix(4.8828125e-4,0,0,-4.8828125e-4,0,0)">
   <path
   d="m 173,740 c 0,163 58,303 173,419 116,115 255,173 419,173 163,0 302,-58 418,-173 116,-116 174,-256 174,-419 0,-163 -58,-303 -174,-418 C 1067,206 928,148 765,148 601,148 462,206 346,322 231,437 173,577 173,740 Z"
   id="path1788" />
  </g>
 </defs>
 
 
<g
   inkscape:groupmode="layer"
   id="layer2"
   inkscape:label="Layer 1"
   transform="translate(-6636,-5722.3741)"><path
     fill="#784b04"
     stroke="none"
     d="m 16950,5838 -992,198 -414,215 -760,1224 -377,446 -845,589 -743,665 -469,572 -453,683 -819,367 -760,222 -1118,282 -751,588 -409,751 -120,768 34,1981 -68,614 -119,145 -163,384 -51,486 -111,359 -94,188 -59,111 -60,85 -9,273 43,529 51,103 -34,179 -307,324 -196,171 -60,145 17,120 85,25 154,51 162,-8 h 205 l 171,-51 358,-145 154,-146 213,-51 461,-34 367,94 h 128 l 102,-102 -34,-128 -290,-205 -85,-197 94,-119 85,8 94,-290 196,-503 478,-700 538,-692 222,-554 145,-717 119,-17 376,375 478,256 546,205 265,376 196,478 -102,648 -60,265 25,145 86,393 51,281 1178,120 -51,281 -17,419 -9,392 17,196 v 197 l -145,111 350,136 282,103 230,59 188,-230 193,76 314,-17 248,-10 183,-183 150,-237 291,-1547 292,-1961 115,-597 v -1668 l 808,-624 536,-686 273,-95 -86,383 -103,475 -43,400 38,345 -65,319 335,918 21,178 178,286 157,357 97,442 114,314 59,253 -32,389 -141,378 -189,162 -194,92 -92,59 -27,114 254,22 345,-114 168,65 54,141 -27,151 81,221 129,178 465,22 313,-135 415,-151 206,-114 54,-345 32,-708 162,-496 76,-363 145,-594 71,-307 5,-411 -97,-486 -33,-205 -86,-426 -5,-303 54,-388 -81,-464 -76,-378 -124,-503 -97,-589 -49,-1387 -65,-470 -162,-659 -183,-389 -216,-280 -378,-362 -470,-227 -157,-226 65,-357 -129,-264 -108,-200 -730,-681 -356,-308 -394,-199 z"
     id="path1800" /><path
     fill="#000000"
     stroke="none"
     d="m 14374,20610 c -44,-6 -119,-41 -166,-77 -48,-36 -143,-85 -212,-108 -69,-22 -143,-56 -165,-75 -22,-19 -73,-42 -114,-53 -90,-22 -123,-88 -62,-122 24,-14 44,-37 44,-52 0,-15 21,-54 46,-87 40,-50 46,-105 39,-361 -5,-166 -11,-451 -14,-633 l -5,-331 -159,-13 c -87,-8 -175,-24 -195,-37 -19,-13 -174,-33 -343,-44 -170,-12 -340,-34 -379,-48 -62,-24 -68,-37 -55,-129 9,-73 1,-111 -29,-137 -24,-19 -43,-73 -43,-119 0,-46 -13,-97 -28,-113 -21,-21 -21,-34 0,-46 37,-24 37,-167 -1,-179 -18,-6 -35,-114 -42,-274 -14,-274 38,-556 135,-739 39,-75 38,-82 -11,-119 -29,-22 -74,-104 -102,-181 -27,-79 -86,-175 -132,-217 -85,-77 -105,-141 -56,-172 39,-24 -76,-108 -181,-131 -56,-12 -98,-42 -117,-82 -24,-53 -48,-64 -143,-64 -63,0 -162,-19 -221,-43 -86,-34 -114,-36 -147,-9 -46,38 -44,39 -102,-74 -24,-47 -53,-86 -65,-86 -12,0 -47,-21 -77,-46 -30,-26 -81,-64 -113,-86 -132,-89 -211,-166 -211,-207 -1,-25 -31,-66 -67,-92 -58,-42 -67,-43 -81,-7 -9,23 1,86 21,141 49,132 34,244 -33,244 -37,0 -51,19 -51,65 0,35 12,72 26,81 66,41 -17,535 -94,560 -14,5 -45,-27 -70,-71 -64,-112 -109,-102 -94,20 8,73 -5,126 -51,199 -34,54 -72,99 -85,99 -13,0 -31,32 -41,71 -10,40 -58,116 -107,170 -49,54 -109,129 -133,167 -25,37 -61,68 -80,68 -56,0 -250,203 -250,263 0,30 -24,75 -53,100 -29,25 -53,66 -53,91 0,24 -9,48 -20,53 -34,15 -218,251 -218,280 0,15 -18,42 -40,60 -22,18 -40,66 -40,106 0,41 -17,87 -39,105 -22,18 -40,59 -40,91 0,32 -17,81 -39,109 -50,67 -50,129 -1,171 23,18 40,76 40,132 0,78 -15,110 -69,145 -66,43 -71,42 -132,-15 -49,-46 -72,-53 -95,-30 -23,24 -20,43 14,80 24,27 44,67 44,88 0,46 174,208 222,208 18,0 60,37 93,82 l 61,82 -76,79 c -71,75 -84,79 -234,66 -87,-7 -248,-27 -357,-44 -270,-43 -434,-22 -623,79 -87,47 -169,95 -183,109 -13,13 -47,24 -73,24 -27,0 -56,17 -64,39 -8,22 -42,40 -75,40 -33,0 -75,18 -93,40 -18,21 -48,39 -67,39 -18,0 -67,18 -108,39 -58,30 -131,36 -314,23 -131,-8 -250,-26 -264,-39 -14,-12 -44,-23 -68,-23 -51,0 -158,-116 -158,-172 0,-75 65,-251 93,-251 15,0 106,-71 202,-158 118,-107 192,-201 231,-290 31,-72 68,-138 82,-147 41,-25 32,-113 -18,-190 -29,-45 -46,-124 -47,-223 0,-86 -15,-168 -34,-187 -44,-44 -40,-182 8,-245 21,-29 38,-76 39,-106 0,-30 19,-78 40,-106 21,-28 39,-68 39,-88 0,-20 31,-77 68,-126 57,-74 66,-108 52,-190 -16,-96 32,-249 91,-285 12,-8 31,-64 41,-125 10,-62 29,-130 41,-152 12,-23 29,-109 38,-193 9,-84 28,-152 41,-152 14,0 25,-35 25,-76 0,-42 18,-91 39,-109 22,-19 40,-55 40,-80 0,-26 16,-53 37,-61 38,-15 73,-285 69,-539 -1,-75 10,-144 24,-153 36,-21 33,-466 -2,-509 -17,-20 -20,-70 -9,-120 10,-47 24,-172 31,-278 11,-156 5,-200 -31,-236 -39,-39 -42,-82 -26,-337 10,-162 28,-305 40,-320 12,-15 22,-145 23,-288 2,-186 14,-280 42,-323 24,-37 40,-122 40,-215 0,-84 15,-178 35,-206 19,-29 63,-123 97,-211 33,-87 94,-194 135,-238 408,-438 600,-622 702,-677 66,-35 169,-90 230,-121 60,-32 146,-59 191,-60 44,-1 96,-16 113,-33 58,-58 279,-105 601,-127 343,-24 570,-64 674,-120 37,-19 118,-54 181,-77 63,-24 201,-105 305,-181 182,-133 247,-169 480,-275 116,-52 516,-447 516,-508 0,-22 16,-58 36,-81 61,-70 281,-401 281,-423 0,-55 583,-592 829,-765 131,-92 202,-159 202,-192 0,-31 19,-50 48,-50 26,0 71,-18 99,-39 28,-22 71,-40 94,-40 23,0 92,-37 152,-80 60,-44 119,-80 130,-80 11,0 46,-26 78,-59 153,-160 193,-211 193,-246 0,-21 21,-61 46,-89 26,-28 68,-83 95,-121 27,-39 78,-81 113,-94 35,-13 63,-45 63,-69 0,-25 31,-83 67,-131 37,-48 66,-98 66,-112 0,-13 19,-41 44,-61 24,-20 70,-96 103,-168 56,-124 278,-384 329,-384 23,0 62,-91 64,-153 1,-19 18,-44 37,-56 20,-12 50,-50 67,-85 19,-38 63,-69 110,-77 60,-11 77,-27 70,-65 -5,-28 -28,-65 -50,-81 -46,-34 -25,-92 32,-92 20,0 41,15 47,33 9,27 24,26 75,-1 43,-22 145,-31 302,-26 221,7 239,12 246,65 7,46 -2,55 -43,44 -29,-7 -83,6 -120,31 -45,29 -107,41 -181,35 -106,-8 -114,-4 -114,57 0,56 -12,67 -79,67 -44,0 -115,27 -157,60 -72,56 -74,62 -29,95 51,37 36,96 -23,96 -19,0 -90,71 -159,159 -68,87 -136,158 -150,158 -13,0 -24,19 -24,43 0,23 -24,72 -53,109 -29,37 -53,83 -53,101 0,46 -87,197 -114,197 -42,0 -177,117 -177,153 0,21 -25,72 -56,115 -43,61 -48,86 -25,115 36,43 -11,138 -79,160 -22,7 -103,73 -181,147 -77,73 -166,145 -197,159 -108,49 -180,97 -253,167 -39,38 -80,69 -90,69 -34,0 -288,166 -371,242 -46,42 -93,75 -105,75 -13,0 -38,15 -57,34 -19,18 -63,50 -98,72 -34,22 -97,80 -141,129 -43,49 -108,115 -142,146 -286,256 -542,575 -590,736 -17,55 -40,101 -51,101 -11,0 -27,20 -36,46 -9,25 -82,115 -161,201 -80,85 -144,170 -144,188 0,18 -32,66 -69,107 -38,40 -80,104 -94,142 l -27,70 -62,-79 c -60,-74 -66,-75 -113,-33 -27,25 -74,45 -104,45 -30,0 -69,18 -87,40 -18,22 -44,40 -58,40 -82,0 -471,372 -471,449 0,35 -137,212 -163,212 -34,0 -55,-163 -25,-193 16,-16 29,-44 29,-63 0,-35 -121,-26 -225,18 -29,12 -88,30 -132,40 -68,15 -72,21 -33,43 70,39 55,96 -30,115 -43,9 -98,40 -124,68 -63,71 -175,65 -247,-12 l -60,-64 55,-55 c 38,-39 89,-55 166,-55 60,0 103,-8 94,-16 -9,-9 -115,-16 -236,-16 -187,0 -240,10 -350,69 -71,37 -149,68 -173,68 -24,0 -67,18 -95,39 -29,22 -71,39 -94,40 -23,0 -95,29 -159,66 -64,36 -140,77 -169,90 -66,30 -294,225 -388,333 -215,244 -339,401 -340,428 0,16 -16,43 -36,60 -20,16 -44,89 -54,161 -9,72 -29,138 -43,146 -14,9 -26,87 -26,173 0,86 -18,203 -41,261 -47,117 -57,561 -42,1848 6,543 0,759 -23,786 -17,21 -23,50 -13,65 21,35 93,36 93,2 0,-26 182,-160 218,-160 11,0 20,14 20,30 0,45 -255,288 -302,288 -23,0 -42,17 -42,38 0,21 -21,44 -47,53 -25,8 -69,56 -96,106 -41,76 -44,100 -16,133 27,33 21,66 -36,186 -72,152 -87,237 -45,263 13,8 -18,94 -69,190 -62,116 -84,183 -66,201 33,33 84,4 84,-47 0,-21 18,-38 40,-38 50,0 51,63 2,154 -21,39 -44,91 -52,117 -25,81 -69,50 -69,-49 0,-64 -11,-91 -33,-84 -50,17 -55,114 -8,161 52,52 53,187 1,230 -22,18 -40,49 -40,69 0,20 -18,37 -39,37 -22,0 -40,23 -40,51 0,73 -50,95 -90,40 -25,-34 -40,-38 -54,-15 -11,18 -5,49 12,70 21,25 25,64 10,111 -36,124 -32,536 6,536 18,0 40,-36 50,-81 12,-56 31,-78 62,-72 72,14 68,134 -8,205 -49,46 -67,90 -67,163 0,55 -10,106 -22,113 -13,8 -17,49 -11,92 10,66 2,80 -51,87 -46,7 -60,24 -54,67 5,38 -10,63 -46,74 -56,18 -76,67 -28,67 77,0 -48,156 -127,158 -18,0 -40,18 -49,40 -8,22 -25,40 -38,40 -12,0 -69,47 -127,106 -97,98 -100,105 -43,105 35,0 89,-31 124,-73 65,-77 358,-234 385,-207 22,21 -189,219 -256,240 -60,20 -75,120 -18,120 20,0 88,-48 152,-106 63,-58 131,-106 149,-106 18,0 33,-15 33,-33 1,-50 178,-161 227,-142 62,24 31,81 -50,91 -72,8 -98,70 -38,92 19,6 23,21 10,35 -14,14 -29,9 -36,-10 -6,-18 -28,-33 -48,-33 -19,0 -45,15 -57,33 -12,18 -45,47 -74,63 -29,16 -57,48 -61,72 -12,58 133,61 180,4 18,-22 60,-40 93,-40 32,0 74,-17 92,-39 18,-22 55,-40 82,-40 27,0 91,-40 141,-89 84,-81 88,-92 49,-131 -40,-39 -39,-44 5,-61 31,-12 56,-3 73,27 19,35 45,42 109,28 46,-10 99,-31 118,-46 20,-16 204,-32 423,-38 213,-5 392,-15 399,-21 6,-6 -2,-28 -19,-47 -21,-27 -21,-44 2,-67 23,-24 17,-44 -27,-85 -32,-30 -58,-85 -58,-122 v -67 l -94,55 c -52,31 -110,56 -129,56 -19,0 -89,41 -156,92 -124,95 -187,114 -218,64 -20,-32 87,-156 134,-156 17,0 65,-36 108,-79 42,-43 102,-78 134,-79 31,0 108,-48 170,-106 61,-57 137,-108 167,-112 46,-7 58,-32 70,-140 14,-135 82,-314 131,-344 15,-9 27,-55 27,-104 0,-48 17,-103 39,-121 40,-33 56,-132 22,-132 -60,0 -196,70 -207,107 -21,66 -111,138 -146,117 -20,-12 2,-49 64,-108 53,-50 95,-106 95,-126 0,-53 93,-126 139,-108 24,9 56,-5 77,-33 20,-27 65,-68 102,-92 36,-24 114,-86 172,-138 58,-53 115,-96 125,-96 11,0 20,-12 20,-26 0,-43 -110,-31 -164,18 -39,35 -55,37 -81,11 -26,-26 -23,-38 14,-59 25,-14 46,-37 46,-51 0,-39 -69,-29 -106,15 -40,48 -123,52 -139,6 -8,-25 -21,-24 -56,4 -60,50 -121,-1 -73,-59 25,-30 23,-41 -7,-52 -21,-9 -53,2 -71,24 -22,27 -71,37 -154,32 -121,-8 -165,-54 -67,-69 28,-5 115,-28 193,-51 132,-40 144,-40 167,1 31,55 75,58 75,5 0,-22 -18,-40 -40,-40 -47,0 -52,-42 -9,-68 17,-11 46,2 65,27 31,43 40,40 118,-40 76,-78 92,-84 160,-58 64,24 77,21 90,-21 20,-61 97,-87 197,-65 65,14 78,8 85,-41 6,-37 39,-68 94,-88 79,-27 219,-192 219,-258 0,-16 36,-74 80,-130 45,-56 97,-165 117,-242 40,-152 62,-653 32,-702 -11,-17 -11,-62 -2,-100 12,-45 1,-101 -31,-159 -45,-84 -45,-92 -3,-139 56,-61 58,-112 5,-112 -21,0 -39,13 -39,27 0,15 -12,26 -27,26 -38,0 -32,-73 7,-87 26,-9 26,-23 1,-62 -44,-68 -125,-235 -194,-399 -32,-76 -74,-152 -94,-169 -21,-16 -37,-56 -37,-88 0,-32 -33,-96 -73,-142 -139,-159 -165,-202 -165,-269 -1,-45 -26,-84 -80,-120 -43,-29 -79,-63 -79,-76 0,-13 -21,-40 -46,-59 -39,-30 -41,-40 -9,-60 37,-24 187,61 187,107 0,12 18,22 40,22 60,0 278,310 278,397 0,41 17,80 39,89 22,8 40,32 40,52 0,21 18,52 40,70 22,19 39,59 39,91 0,58 151,227 202,227 48,0 150,128 134,168 -8,22 2,46 23,54 21,8 38,31 38,52 0,21 19,45 42,54 22,8 33,29 22,46 -12,20 -26,16 -42,-13 -14,-24 -42,-44 -63,-44 -21,0 -38,-17 -38,-39 0,-22 -13,-40 -27,-40 -15,0 -26,18 -26,40 0,22 11,39 26,39 14,0 27,17 27,38 0,38 200,200 250,201 15,1 55,24 89,53 72,60 56,120 -21,79 -66,-35 -80,-34 -80,8 0,42 110,151 151,151 16,0 42,37 58,83 34,97 232,286 300,287 32,0 47,-21 47,-64 0,-72 62,-148 121,-148 58,0 170,80 170,122 0,39 -131,116 -197,116 -23,0 -41,13 -41,27 0,15 28,26 62,26 35,0 78,18 96,40 18,22 53,40 78,40 24,0 68,17 96,39 28,21 87,39 131,39 43,1 113,19 155,41 41,22 90,40 108,40 43,0 226,185 226,229 0,19 12,35 26,35 14,0 19,16 12,35 -7,19 34,85 93,146 58,62 130,165 160,230 29,65 66,118 80,118 33,0 34,151 1,171 -13,8 -32,84 -41,167 -9,83 -30,178 -46,211 -22,45 -21,76 7,128 29,53 30,78 4,118 -40,64 -41,243 -2,282 31,31 11,87 -31,87 -14,0 -25,-17 -25,-39 0,-22 -19,-40 -40,-40 -22,0 -39,18 -39,41 0,22 18,47 39,55 22,9 40,28 40,43 0,15 21,42 46,61 37,27 49,83 56,263 9,214 14,230 75,253 35,14 129,25 207,25 78,0 171,11 205,24 36,14 148,33 249,43 153,15 191,11 228,-26 64,-65 55,-165 -22,-231 -36,-32 -66,-72 -66,-89 0,-17 -24,-52 -53,-78 -29,-27 -53,-74 -53,-106 0,-32 -20,-99 -46,-148 -32,-64 -46,-155 -46,-315 0,-124 -14,-249 -30,-278 -66,-118 -98,-249 -115,-463 -10,-134 -36,-261 -63,-314 -32,-60 -44,-126 -36,-199 10,-88 0,-122 -51,-177 -55,-60 -60,-79 -35,-145 32,-83 20,-157 -39,-233 -36,-48 -41,-48 -162,11 -102,49 -133,54 -175,28 -38,-24 -72,-24 -135,-2 -64,22 -112,20 -201,-7 -116,-34 -179,-100 -97,-100 23,0 42,-18 42,-40 0,-29 17,-36 64,-24 46,12 83,0 126,-40 39,-37 81,-52 119,-42 32,8 65,2 74,-12 28,-46 97,-30 112,26 7,29 19,53 27,53 25,0 232,-120 251,-146 29,-40 24,-378 -6,-396 -15,-9 -27,-45 -27,-80 0,-34 12,-70 27,-79 14,-9 26,-71 26,-137 0,-107 58,-261 112,-302 12,-8 28,-76 37,-152 9,-75 33,-150 52,-166 20,-17 36,-65 36,-107 0,-42 17,-83 37,-91 57,-22 52,-339 -11,-665 -30,-156 -66,-305 -80,-330 -14,-25 -25,-87 -25,-137 0,-51 -11,-99 -25,-107 -14,-9 -19,-34 -10,-55 10,-27 -11,-49 -65,-68 -49,-17 -85,-50 -92,-85 -11,-56 -11,-56 -15,4 -3,47 -17,59 -63,52 -87,-12 -96,-141 -16,-216 78,-73 185,-128 205,-106 9,9 1,22 -17,29 -18,6 -33,36 -33,66 0,51 5,50 66,-17 68,-74 83,-121 39,-121 -15,0 -27,-22 -27,-49 0,-83 -32,-87 -108,-14 -72,69 -74,70 -167,26 -110,-52 -122,-120 -36,-200 63,-59 115,-69 140,-28 9,15 45,20 80,11 52,-13 66,-4 81,53 28,115 63,77 63,-70 0,-165 72,-561 119,-655 18,-37 41,-111 51,-166 21,-117 59,-127 97,-26 20,52 19,111 -2,205 -17,73 -42,240 -56,370 -21,200 -18,254 17,332 31,69 35,112 16,162 -14,37 -34,165 -45,284 -16,185 -12,223 27,266 31,35 41,74 30,125 -9,41 -4,117 10,168 45,154 39,878 -8,982 -22,48 -49,118 -59,154 -10,37 -30,74 -44,83 -14,8 -31,73 -38,143 -8,69 -30,143 -51,164 -21,20 -37,59 -37,85 0,26 -18,63 -40,81 -45,37 -53,200 -13,225 14,9 26,46 26,81 0,36 -12,64 -26,64 -41,0 -31,106 13,123 51,20 51,165 -1,233 -50,68 -50,216 1,236 48,18 51,78 6,153 -26,45 -26,58 0,68 40,14 45,103 7,127 -14,9 -26,40 -26,70 0,46 6,50 40,22 55,-46 84,-10 45,54 -39,62 -43,201 -6,224 15,9 26,-14 26,-55 0,-39 27,-114 60,-167 32,-52 56,-99 53,-102 -24,-25 0,-86 33,-86 52,0 54,152 3,209 -50,56 -61,334 -31,743 22,292 28,319 51,232 14,-55 40,-99 58,-99 46,0 67,105 33,168 -21,39 -21,57 0,64 19,6 24,66 13,180 -13,146 -9,177 32,206 38,28 44,59 33,158 -10,93 -5,123 22,123 20,0 56,30 80,67 24,36 63,63 86,59 36,-6 42,16 35,130 -5,76 4,143 20,153 15,10 28,85 29,168 0,125 6,142 30,99 35,-60 211,-226 240,-226 11,0 20,24 20,53 0,29 -11,53 -26,53 -14,0 -27,16 -27,36 0,20 -18,51 -40,70 -21,18 -39,53 -39,79 0,26 -17,61 -38,78 -23,18 -38,76 -37,140 1,71 -13,120 -41,140 -24,17 -43,49 -43,70 0,21 -17,61 -39,89 -47,62 -53,280 -9,324 23,23 23,47 0,99 -39,83 -42,234 -5,211 15,-9 27,-40 27,-68 0,-85 100,-66 110,22 7,57 24,74 81,81 59,6 73,22 73,76 0,39 29,95 69,132 57,53 66,79 53,149 -10,46 -43,104 -75,128 -49,37 -52,50 -23,86 20,23 75,42 123,42 48,0 92,15 99,33 20,56 108,-15 126,-102 9,-42 32,-103 52,-135 51,-80 16,-104 -51,-36 -31,30 -68,55 -83,55 -42,0 -62,-79 -29,-113 17,-17 30,-50 30,-74 0,-67 181,-289 236,-289 78,0 100,52 117,280 15,212 15,214 -62,277 -42,36 -77,83 -78,107 -1,23 -30,74 -66,112 -65,70 -107,78 -292,51 z m -245,-371 c 65,-58 58,-77 -33,-95 -68,-14 -80,-28 -81,-103 -2,-70 -6,-77 -24,-33 -11,29 -16,60 -11,70 6,10 -25,44 -69,75 -83,59 -103,118 -47,142 54,23 215,-11 265,-56 z m 655,-139 c 0,-14 -11,-26 -25,-26 -14,0 -32,12 -41,26 -9,15 2,27 24,27 23,0 42,-12 42,-27 z m -7826,-838 c -19,-8 -42,-7 -50,2 -9,9 6,15 34,14 31,-1 37,-8 16,-16 z m 2278,-33 c 19,-73 -128,-127 -162,-60 -36,69 -7,111 74,111 52,0 79,-16 88,-51 z m 4727,-266 c 0,-14 -11,-27 -26,-27 -15,0 -26,13 -26,27 0,15 11,26 26,26 15,0 26,-11 26,-26 z M 9373,17637 c -9,-13 -27,-18 -41,-9 -14,8 -18,26 -9,40 8,14 26,18 40,10 14,-9 18,-27 10,-41 z m -1954,-70 c -27,-27 -49,14 -27,50 17,27 23,27 32,0 6,-19 4,-41 -5,-50 z m 1968,-536 c 0,-15 -12,-26 -26,-26 -15,0 -27,11 -27,26 0,15 12,26 27,26 14,0 26,-11 26,-26 z m 503,-240 c 0,-13 -12,-25 -26,-25 -15,0 -27,19 -27,42 0,22 12,34 27,25 14,-9 26,-28 26,-42 z m 3334,-1838 c 0,-7 -13,-12 -27,-12 -15,0 -26,12 -26,28 0,15 11,21 26,12 14,-9 27,-22 27,-28 z m -2710,-534 c -8,-9 -15,7 -13,35 1,30 7,37 16,16 7,-19 6,-42 -3,-51 z m 4328,6040 c -26,-57 -22,-68 29,-84 32,-11 112,-21 177,-22 115,-2 120,-5 128,-88 7,-82 -27,-115 -62,-59 -21,35 -137,34 -159,-1 -23,-37 95,-157 154,-157 25,-1 53,-19 62,-41 8,-21 38,-39 65,-39 28,0 50,18 50,39 0,22 22,40 48,40 98,0 156,143 71,176 -48,18 -52,80 -6,96 64,23 178,-58 178,-127 0,-36 -11,-65 -26,-65 -14,0 -27,-30 -27,-67 0,-41 15,-66 40,-66 22,0 40,24 40,53 0,67 44,69 65,3 9,-28 34,-58 57,-66 22,-9 32,-28 23,-43 -35,-56 -15,-554 25,-615 38,-59 112,-399 138,-634 8,-68 31,-138 51,-155 21,-17 38,-56 39,-87 0,-31 18,-86 38,-123 26,-45 38,-151 39,-334 1,-176 15,-300 41,-362 29,-70 32,-113 13,-164 -34,-89 -34,-224 0,-224 14,0 26,-48 26,-106 0,-58 17,-150 38,-205 41,-108 73,-695 38,-695 -12,0 -35,54 -52,119 -54,215 -102,126 -103,-190 0,-104 14,-223 31,-264 26,-63 42,-364 48,-935 2,-158 -12,-249 -46,-309 -18,-32 -33,-87 -33,-124 0,-36 -12,-74 -26,-83 -34,-20 -36,-225 -3,-225 64,0 108,38 108,91 0,32 18,81 39,109 22,29 40,83 40,119 1,37 19,93 42,125 32,46 34,70 11,114 -23,43 -20,79 13,162 33,82 36,126 16,190 -15,45 -27,118 -27,162 0,44 -13,215 -29,380 -16,165 -22,329 -13,365 28,111 67,39 67,-123 0,-85 7,-173 16,-197 24,-62 90,-50 91,18 5,217 28,450 55,571 29,123 27,150 -13,217 -35,59 -50,178 -67,512 -18,364 -31,450 -75,524 -43,70 -54,138 -57,344 -2,149 -20,302 -43,367 -21,61 -39,150 -39,197 0,47 -18,101 -40,119 -22,18 -40,52 -40,76 0,24 -18,94 -40,157 -22,63 -33,126 -24,140 31,50 -45,590 -89,640 -28,32 -44,104 -46,212 -3,140 -12,168 -61,190 -32,15 -57,50 -57,83 0,31 -18,71 -40,89 -22,19 -39,47 -39,63 0,29 -81,121 -170,195 -49,41 -154,43 -192,5 -21,-21 -60,-13 -137,26 -61,31 -159,55 -224,55 -97,0 -120,-10 -145,-64 z m 592,-829 c -10,-10 -61,-14 -113,-10 -92,8 -94,6 -76,-67 11,-41 36,-93 57,-116 20,-23 37,-62 37,-86 0,-49 92,-62 120,-17 22,35 109,-76 132,-167 10,-38 34,-75 55,-83 21,-8 37,-50 37,-94 0,-54 13,-81 40,-81 28,0 40,28 40,93 0,51 -12,93 -27,93 -14,0 -26,25 -26,56 0,31 -23,107 -51,166 -28,60 -65,148 -83,195 -33,88 -109,152 -142,118 z m 3765,-251 c -22,-22 -78,-59 -124,-83 -61,-32 -85,-62 -85,-111 0,-37 -30,-110 -66,-164 -66,-97 -87,-191 -43,-191 47,0 50,-103 5,-144 -52,-47 -114,-52 -181,-16 -239,129 -436,146 -530,46 -35,-37 -58,-95 -58,-146 0,-80 13,-91 200,-181 206,-100 356,-245 356,-346 0,-29 23,-147 52,-261 63,-251 67,-377 14,-504 -22,-52 -40,-123 -40,-158 0,-34 -24,-86 -53,-115 -33,-34 -53,-89 -53,-151 0,-135 -49,-266 -154,-405 l -90,-119 13,-373 c 9,-298 21,-389 60,-455 35,-59 41,-91 20,-116 -15,-19 -36,-73 -46,-119 -9,-46 -33,-90 -52,-97 -22,-8 -41,-92 -54,-234 -11,-134 -34,-237 -58,-264 -31,-34 -36,-78 -21,-192 10,-81 27,-148 38,-148 37,0 133,334 133,461 0,167 70,403 133,447 109,77 142,314 50,364 -49,26 -54,46 -42,179 21,225 47,358 78,396 28,35 47,121 107,495 27,170 43,212 80,212 66,0 96,62 96,202 0,84 13,127 40,138 52,20 55,376 4,499 -69,164 -103,272 -116,364 -25,173 -289,428 -484,467 -43,9 -79,28 -79,43 0,37 260,-1 328,-48 30,-21 82,-38 115,-38 34,0 84,-15 112,-33 45,-27 63,-21 132,45 l 81,77 v -84 c 0,-64 -12,-85 -48,-85 -26,0 -62,-14 -79,-31 -37,-37 -43,-308 -8,-362 32,-51 82,-13 82,61 0,34 18,76 39,94 22,18 40,57 40,85 0,29 17,84 37,123 20,38 49,102 65,142 16,41 73,94 135,126 62,32 107,74 107,100 1,25 8,73 17,107 13,48 4,64 -42,76 -32,9 -69,45 -83,80 -32,84 -74,68 -142,-53 -30,-53 -66,-94 -81,-91 -38,9 -18,107 28,133 21,12 39,42 39,66 1,25 30,79 66,119 53,61 74,69 117,47 28,-16 81,-28 117,-28 152,0 190,-72 106,-200 -30,-46 -39,-101 -29,-186 17,-157 59,-201 101,-108 35,76 77,70 77,-10 0,-69 79,-67 169,3 41,33 69,81 69,119 0,55 -12,65 -86,65 -131,1 -147,23 -132,178 17,172 54,178 195,33 92,-95 103,-119 103,-242 0,-120 10,-146 84,-212 99,-89 168,-96 188,-20 23,87 106,53 127,-52 10,-49 31,-97 46,-106 14,-9 35,-49 45,-89 10,-40 29,-80 42,-88 13,-8 23,-151 23,-318 0,-313 -33,-384 -66,-143 -10,73 -29,132 -42,132 -13,0 -24,-17 -24,-39 0,-84 -78,-37 -105,63 -31,115 -87,175 -144,153 -26,-10 -42,5 -47,43 -10,73 -96,93 -117,27 -8,-26 -21,-66 -28,-88 -10,-32 -20,-30 -51,13 -34,46 -43,47 -64,14 -14,-22 -26,-49 -26,-60 -1,-46 -80,-15 -80,32 0,28 -10,57 -23,65 -27,17 -162,-101 -162,-142 0,-49 -44,-30 -74,32 l -29,59 -17,-56 c -9,-31 -45,-69 -79,-85 -69,-31 -110,-170 -79,-268 14,-43 26,-50 53,-27 28,23 44,13 71,-44 53,-111 87,-90 96,59 6,97 -4,145 -33,169 -45,38 -56,133 -15,133 14,0 34,-29 43,-66 10,-36 27,-66 38,-66 12,0 29,-36 39,-79 13,-60 32,-80 76,-80 60,0 174,-125 175,-190 0,-19 11,-51 24,-71 47,-74 135,196 135,412 0,231 51,258 87,46 12,-72 39,-149 60,-172 21,-23 38,-60 38,-81 0,-42 176,-222 235,-239 34,-10 98,-203 166,-498 15,-66 49,-137 76,-159 42,-34 52,-94 66,-410 9,-204 33,-424 52,-490 42,-139 35,-510 -10,-564 -17,-21 -30,-89 -29,-153 1,-64 -1,-134 -4,-156 -3,-22 -3,-91 -1,-154 4,-93 13,-113 51,-105 36,7 46,36 46,128 0,65 12,124 26,131 46,23 46,-135 1,-253 -63,-166 -66,-526 -4,-655 45,-96 45,-111 5,-278 -24,-97 -48,-222 -55,-277 -7,-56 -23,-122 -36,-146 -12,-24 -30,-102 -39,-171 -9,-70 -34,-153 -56,-184 -22,-32 -40,-89 -40,-126 0,-38 -14,-81 -30,-97 -17,-17 -33,-144 -38,-290 -5,-166 -24,-298 -52,-364 -37,-89 -44,-207 -41,-800 1,-449 -7,-697 -25,-697 -14,0 -26,38 -26,86 0,47 -12,127 -26,177 -17,61 -17,125 0,190 19,68 18,139 -1,225 -20,87 -20,164 -1,251 21,98 18,151 -12,237 -22,61 -39,150 -39,197 0,47 -18,129 -40,181 -22,52 -40,158 -40,235 -1,143 -33,234 -71,196 -37,-37 -25,-480 13,-527 24,-28 39,-167 49,-434 7,-216 24,-427 38,-469 14,-44 14,-89 1,-106 -13,-16 -32,-237 -43,-492 -10,-254 -31,-478 -46,-496 -15,-19 -20,-83 -12,-146 15,-110 -20,-335 -56,-362 -48,-37 -278,-425 -261,-441 22,-23 309,289 309,336 0,28 12,51 26,51 38,0 33,-108 -8,-157 -19,-23 -58,-95 -86,-160 -28,-66 -69,-139 -91,-164 -71,-80 -95,-114 -113,-161 -10,-25 -30,-46 -45,-46 -15,0 -27,-20 -27,-44 0,-99 -453,-447 -643,-495 l -71,-18 -1,180 c 0,182 -71,432 -129,451 -42,14 -36,90 14,161 23,34 49,138 56,232 12,147 6,182 -43,248 -31,42 -56,88 -56,101 0,13 -18,39 -40,57 -22,18 -40,58 -40,88 0,34 -74,128 -192,242 -253,246 -390,416 -390,487 0,38 -31,77 -92,113 -51,30 -93,65 -93,78 0,49 -157,23 -210,-34 -30,-31 -57,-52 -61,-46 -4,6 -19,33 -33,60 -47,85 -79,58 -102,-87 -15,-95 -13,-162 8,-208 l 31,-66 115,130 c 98,110 123,125 164,101 27,-16 64,-62 84,-101 19,-40 55,-80 79,-88 63,-24 163,-135 163,-183 0,-22 72,-108 159,-191 193,-182 201,-220 43,-199 -73,10 -122,5 -134,-13 -12,-21 26,-30 123,-31 115,-1 156,-15 229,-77 73,-63 86,-89 73,-145 -15,-57 -34,-69 -116,-72 -192,-9 -470,10 -494,33 -14,13 -65,24 -115,24 -49,0 -128,20 -174,44 -46,24 -116,60 -157,81 -73,37 -454,57 -486,26 -8,-9 -9,-35 0,-57 11,-30 53,-41 148,-41 123,0 220,-29 407,-122 41,-20 104,-37 140,-37 36,0 93,-18 126,-40 83,-54 685,-61 749,-9 37,31 40,25 23,-57 -11,-51 -36,-127 -57,-169 -20,-42 -37,-111 -37,-152 0,-63 -11,-76 -68,-76 -37,0 -86,18 -108,40 -35,36 -48,31 -117,-37 -142,-142 -88,-333 89,-319 107,9 108,-1 3,-91 -75,-66 -95,-99 -74,-120 74,-77 313,160 332,330 12,105 56,94 89,-22 14,-51 35,-103 46,-113 11,-11 20,-73 20,-138 0,-97 -14,-130 -83,-194 -45,-42 -75,-93 -68,-113 8,-20 2,-49 -14,-64 -20,-20 -46,-1 -90,64 -81,119 -79,133 18,152 93,19 81,70 -16,70 -40,0 -65,-15 -65,-40 0,-28 -29,-40 -106,-40 -87,0 -124,-18 -214,-105 -117,-114 -182,-131 -237,-64 -29,34 -28,45 3,65 21,13 63,24 94,25 45,0 116,90 116,147 0,24 -209,11 -225,-15 -9,-14 -50,-26 -92,-26 -42,0 -95,-19 -118,-42 -43,-44 -120,-34 -120,15 0,15 -18,27 -40,27 -22,0 -40,11 -40,26 0,14 -38,27 -86,27 -47,0 -139,3 -205,7 -108,5 -120,0 -128,-58 -5,-38 8,-73 33,-87 50,-28 56,-74 9,-74 -18,0 -67,19 -110,41 -42,22 -80,35 -86,30 -5,-5 10,-48 34,-95 45,-90 34,-133 -22,-89 -49,38 -169,63 -217,44 -67,-26 -52,-116 19,-116 34,0 96,-34 139,-76 119,-115 248,-153 384,-112 79,24 119,25 139,5 46,-46 116,-33 131,24 17,62 93,71 116,13 8,-22 0,-58 -18,-79 -27,-33 -22,-40 32,-40 89,0 127,48 109,137 -20,103 -2,95 86,-37 115,-173 147,-192 201,-120 37,48 53,54 79,27 40,-39 224,-44 248,-7 9,15 45,27 80,27 42,0 77,24 103,73 l 39,72 1,-94 c 1,-51 -12,-107 -28,-123 -21,-21 -14,-37 26,-59 62,-33 70,-160 10,-160 -38,0 -86,-106 -86,-189 0,-40 15,-51 60,-44 47,6 61,27 67,101 4,50 38,155 76,232 58,118 64,151 39,206 -17,37 -30,118 -30,180 0,106 7,118 99,162 55,26 131,64 169,83 39,20 95,36 124,36 29,0 57,10 62,22 5,12 58,51 119,87 117,69 406,329 406,366 0,12 18,36 39,54 22,18 40,62 40,96 0,35 10,63 22,63 28,0 188,219 249,341 26,50 47,129 47,176 0,46 16,99 36,116 21,17 45,73 55,125 10,52 29,115 41,138 46,84 100,322 76,336 -31,19 -30,163 1,182 14,9 31,90 39,180 22,253 50,766 44,840 -30,448 -27,789 8,885 21,59 58,197 83,306 25,109 62,246 83,305 20,59 36,152 36,209 0,56 19,124 41,149 29,30 42,103 44,239 1,107 19,227 38,266 51,101 45,424 -9,577 -41,117 -42,135 -3,229 23,56 56,179 72,274 59,342 80,429 112,467 20,24 36,138 40,282 4,134 18,319 31,412 17,125 14,201 -12,289 -20,65 -36,143 -36,172 0,30 -17,72 -37,95 -43,49 -122,412 -122,562 0,112 -95,436 -135,460 -13,9 -24,57 -24,107 0,57 -15,98 -39,107 -22,9 -40,39 -40,67 0,29 -19,79 -42,115 -33,49 -39,100 -25,217 23,209 21,503 -4,621 -23,101 -230,313 -306,313 -21,0 -88,35 -148,79 -63,46 -143,79 -188,79 -47,0 -107,27 -150,67 -62,57 -95,66 -233,63 -88,-2 -221,5 -295,16 -103,15 -143,10 -173,-20 z m 1020,-426 c 81,-137 85,-176 16,-176 -69,0 -134,99 -134,205 0,117 38,108 118,-29 z m -1017,-183 c -56,-95 -120,-140 -144,-102 -7,12 32,69 86,128 112,122 138,110 58,-26 z m 1322,1 c 1,-10 -17,-20 -39,-20 -25,0 -40,25 -40,71 0,68 2,69 39,20 22,-28 40,-60 40,-71 z m -767,-827 c 0,-51 -11,-93 -26,-93 -15,0 -26,42 -26,93 0,51 11,92 26,92 15,0 26,-41 26,-92 z m 984,-551 c 25,-104 47,-214 48,-243 1,-29 25,-100 53,-159 34,-70 52,-163 52,-278 1,-113 16,-193 43,-232 28,-41 39,-108 35,-215 -5,-117 5,-167 38,-200 54,-55 56,-191 4,-384 -21,-80 -39,-223 -40,-318 0,-172 -29,-270 -63,-215 -10,15 -11,200 -2,411 13,317 9,396 -25,463 -32,60 -42,163 -42,419 0,269 -9,352 -42,400 -65,92 -199,696 -164,738 41,49 54,26 105,-187 z m -345,-7047 c -7,-310 -56,-357 -56,-54 0,220 17,329 47,299 8,-8 12,-118 9,-245 z M 18657,8895 c 26,-70 18,-91 -34,-91 -46,0 -82,48 -82,108 0,42 99,27 116,-17 z m -898,-671 c 8,-14 2,-33 -13,-42 -38,-23 -158,8 -158,41 0,33 151,34 171,1 z m 292,-2 c 9,-14 -9,-26 -40,-26 -30,0 -48,12 -39,26 9,15 27,27 39,27 13,0 31,-12 40,-27 z m 758,-174 c 57,-35 17,-82 -66,-79 -80,3 -176,62 -176,109 0,19 203,-6 242,-30 z m -1499,-37 c 9,-15 -2,-27 -25,-27 -22,0 -41,12 -41,27 0,14 11,26 25,26 14,0 32,-12 41,-26 z M 8029,19210 c -9,-10 -17,-51 -17,-91 0,-40 -11,-80 -24,-88 -25,-16 -195,63 -210,97 -13,30 -96,24 -129,-9 -17,-17 -87,-32 -157,-34 -100,-2 -130,-13 -137,-51 -5,-26 5,-64 23,-85 36,-44 158,-53 158,-12 0,15 20,35 46,44 25,9 66,33 89,54 38,32 55,26 133,-45 73,-68 107,-81 195,-74 105,7 105,8 113,129 8,116 -39,209 -83,165 z m 565,-88 c 0,-14 11,-27 26,-27 14,0 27,13 27,27 0,15 -13,26 -27,26 -15,0 -26,-11 -26,-26 z m 142,-673 c -22,-58 9,-200 54,-251 20,-23 41,-65 46,-93 5,-28 24,-55 42,-61 47,-16 42,82 -14,269 -48,159 -98,213 -128,136 z m -1280,-346 c 0,-51 14,-92 30,-92 17,0 24,-28 17,-67 -10,-51 -2,-66 37,-66 63,0 93,74 52,130 -17,23 -44,75 -59,115 -40,101 -77,91 -77,-20 z m 5296,-215 c 5,-27 21,-46 36,-43 38,10 32,67 -10,80 -23,8 -32,-5 -26,-37 z m 1033,-831 c -33,-56 -59,-119 -59,-140 0,-21 -16,-51 -36,-67 -60,-50 -110,-310 -74,-388 17,-37 30,-101 30,-143 0,-41 18,-89 39,-106 21,-18 41,-75 46,-127 4,-52 23,-100 41,-106 43,-14 47,474 5,553 -33,60 0,183 67,250 43,43 59,340 20,364 -11,7 -47,-33 -79,-90 z m -5996,-128 c -11,-18 -13,-40 -5,-49 24,-24 50,11 37,49 -9,27 -15,27 -32,0 z m 144,-734 c 0,-42 113,-194 134,-181 41,25 27,123 -22,161 -49,37 -112,48 -112,20 z m 8587,-92 c -20,-62 -66,-610 -63,-751 6,-360 -46,-1041 -90,-1178 -36,-107 -47,-514 -17,-601 11,-32 26,-235 34,-449 8,-228 31,-445 54,-521 22,-71 39,-214 40,-317 0,-103 17,-259 38,-346 51,-209 50,-329 -2,-454 -36,-84 -40,-153 -25,-393 10,-160 19,-309 19,-331 0,-90 -49,-334 -79,-388 -17,-32 -31,-81 -31,-109 0,-57 -81,-241 -160,-363 -28,-43 -59,-97 -69,-119 -24,-52 -303,-418 -383,-503 -68,-71 -343,-282 -442,-338 -33,-19 -138,-41 -233,-50 -95,-9 -216,-38 -269,-65 -53,-27 -129,-49 -170,-49 -106,0 -285,-60 -285,-96 0,-94 291,-84 516,17 127,57 218,79 323,79 175,0 264,42 470,223 102,89 160,108 95,31 -36,-44 -107,-450 -107,-612 0,-96 -17,-123 -172,-275 -169,-166 -172,-172 -172,-309 0,-77 11,-169 24,-205 27,-71 171,-229 209,-229 24,0 111,-87 111,-112 0,-8 -32,-22 -70,-32 -121,-30 -27,-77 142,-71 146,6 271,56 271,109 0,13 30,54 66,90 54,54 83,63 159,51 76,-13 93,-7 93,30 0,57 -141,200 -196,200 -51,0 -54,29 -9,77 26,28 26,38 0,47 -20,7 -33,60 -33,129 0,94 -9,117 -46,116 -60,-1 -139,-61 -139,-105 0,-18 21,-50 46,-69 43,-33 42,-37 -13,-52 -84,-24 -74,-61 48,-183 79,-79 95,-108 64,-115 -68,-14 -118,16 -145,88 -28,73 -101,87 -185,35 -43,-27 -61,-23 -115,27 -55,52 -67,55 -96,19 -52,-63 -81,-23 -81,114 v 125 l 188,125 c 104,68 211,124 239,124 52,0 69,65 23,93 -37,23 -33,181 6,220 26,26 26,44 0,85 -47,74 -40,256 13,346 55,92 87,98 87,17 1,-83 29,-179 53,-179 11,0 27,51 37,113 20,131 85,346 137,450 26,53 29,93 10,141 -21,56 -13,86 47,171 40,57 84,100 97,96 14,-4 27,-70 29,-146 7,-177 36,-208 128,-135 63,49 71,73 71,220 v 165 l 105,47 c 59,25 106,55 106,66 0,11 37,61 82,111 45,50 92,116 104,148 13,33 56,64 101,74 43,9 99,40 125,68 25,29 68,52 94,52 26,0 61,24 76,53 16,29 51,53 78,53 58,0 175,216 151,278 -24,62 -106,46 -202,-40 -49,-44 -103,-80 -120,-80 -17,0 -52,-23 -79,-53 -28,-30 -82,-53 -129,-53 -96,-1 -165,-53 -256,-191 -64,-99 -124,-141 -154,-111 -9,9 -17,399 -18,867 -2,868 -38,1482 -106,1790 -21,95 -38,204 -38,244 v 71 l 85,-45 c 47,-25 100,-57 117,-71 18,-15 71,-57 118,-93 48,-36 108,-88 133,-116 46,-49 129,-43 129,9 0,14 -87,114 -193,222 -128,129 -222,202 -278,214 -46,10 -89,26 -94,36 -31,51 -42,418 -15,499 22,67 22,99 -2,127 -52,63 -1,104 54,45 27,-29 136,-110 242,-181 107,-70 200,-134 207,-141 7,-8 67,-60 132,-118 66,-57 161,-160 212,-227 51,-67 161,-191 244,-278 84,-86 152,-170 153,-185 0,-45 106,-125 277,-208 177,-85 463,-364 463,-452 1,-29 19,-87 40,-129 22,-41 40,-107 40,-145 0,-39 18,-135 40,-215 21,-80 39,-211 39,-291 0,-80 14,-217 30,-305 15,-87 37,-212 47,-278 20,-126 138,-336 203,-361 47,-18 117,36 117,91 0,22 -42,103 -92,180 -74,110 -93,165 -93,267 -1,70 -18,193 -40,273 -21,80 -39,229 -40,331 -1,110 -17,212 -39,251 -21,37 -38,108 -39,159 -1,51 -28,142 -61,202 -32,60 -91,169 -131,242 -39,73 -86,138 -104,144 -50,17 -4,100 56,100 54,0 147,137 114,169 -9,9 5,32 30,51 26,19 70,98 97,176 64,179 71,184 133,105 l 51,-64 66,73 c 37,41 66,107 66,148 0,40 24,102 53,135 30,34 52,69 52,79 0,11 29,14 63,7 52,-10 74,9 133,115 82,146 82,232 0,243 -42,6 -61,-9 -74,-60 -14,-55 -28,-65 -78,-52 -91,23 -214,-92 -254,-237 -32,-114 -36,-117 -123,-103 -82,13 -93,7 -119,-67 -15,-45 -50,-89 -77,-97 -60,-19 -158,-179 -159,-259 0,-32 -12,-76 -27,-97 -23,-35 -30,-34 -54,6 -61,104 -117,7 -106,-185 9,-164 -42,-138 -78,40 -16,83 -54,200 -83,260 -67,134 -57,232 24,243 55,8 60,22 60,184 0,175 -40,207 -57,46 -12,-108 -60,-101 -71,10 -4,50 -25,115 -45,146 -24,38 -28,69 -11,95 20,33 36,26 90,-39 56,-67 71,-74 93,-40 15,22 27,114 27,205 0,129 -17,202 -79,333 -87,185 -98,260 -43,314 35,35 42,59 93,332 14,76 45,165 68,197 31,45 41,129 40,351 0,298 -27,410 -78,332 -14,-22 -26,-94 -27,-161 0,-66 -17,-143 -39,-172 -21,-28 -39,-93 -40,-144 -1,-51 -19,-122 -40,-158 -21,-37 -38,-99 -39,-138 -1,-80 -137,-298 -201,-322 -35,-14 -40,-57 -30,-275 6,-141 20,-293 30,-337 18,-75 16,-77 -23,-28 -28,35 -50,43 -68,25 -18,-18 -7,-65 34,-144 90,-173 135,-343 101,-377 -41,-42 -35,-204 11,-293 22,-41 40,-89 40,-104 1,-17 24,-78 52,-136 51,-105 70,-225 36,-225 -20,0 -353,344 -353,363 0,14 -132,181 -265,335 -151,176 -322,330 -441,399 -70,40 -184,127 -253,194 -110,106 -124,132 -111,202 14,77 42,693 41,887 0,51 -16,261 -35,468 -32,352 -57,462 -84,376 z m -413,-8331 c 0,-15 -18,-26 -40,-26 -22,0 -40,11 -40,26 0,14 18,27 40,27 22,0 40,-13 40,-27 z m -1519,8123 c -48,-148 -53,-237 -18,-324 14,-34 32,-94 41,-134 21,-100 88,-92 106,14 11,67 5,450 -10,555 -1,11 -19,20 -39,20 -21,0 -56,-58 -80,-131 z m -6497,78 c 0,-14 18,-26 40,-26 21,0 39,12 39,26 0,15 -18,27 -39,27 -22,0 -40,-12 -40,-27 z m 6200,-103 c -9,-44 -33,-95 -53,-111 -20,-17 -36,-46 -36,-64 0,-19 -18,-41 -40,-49 -58,-22 -49,-142 13,-176 31,-16 53,-55 53,-92 0,-84 52,-113 97,-52 47,65 45,143 -6,199 -27,30 -35,69 -23,114 23,93 62,88 82,-10 19,-97 55,-102 77,-12 19,72 -68,308 -119,325 -16,5 -36,-27 -45,-72 z m -151,6 c -32,-32 -18,-88 22,-88 22,0 40,23 40,53 0,53 -29,69 -62,35 z m -2285,-228 c -93,-39 -139,-74 -139,-105 0,-25 3,-47 6,-48 4,0 102,-11 218,-23 254,-27 331,-5 331,94 0,148 -176,182 -416,82 z m 2047,-142 c -39,-39 -17,-115 33,-115 28,0 57,-15 66,-33 8,-18 8,-3 -1,33 -19,78 -72,141 -98,115 z m 6507,-50 c -9,-23 -16,-125 -16,-226 0,-148 10,-193 53,-236 29,-29 52,-84 52,-123 0,-38 17,-83 37,-99 30,-24 32,-65 12,-219 -20,-148 -18,-205 10,-264 29,-59 33,-155 19,-446 -21,-423 -8,-595 45,-595 23,0 36,30 36,80 0,44 21,112 46,151 69,105 68,716 -2,870 -40,90 -44,130 -22,250 21,116 19,148 -11,165 -22,12 -37,62 -37,119 0,54 -25,164 -55,244 -29,80 -62,192 -73,249 -20,111 -67,151 -94,80 z m -7887,-19 c -10,-25 -34,-46 -54,-46 -58,0 -66,-43 -18,-97 57,-63 344,-209 367,-186 10,10 -2,25 -26,34 -24,9 -44,32 -44,51 0,49 -87,198 -116,198 -13,0 -39,21 -57,46 -33,44 -35,44 -53,0 z m 60,-79 c -13,-37 -55,-33 -68,7 -5,14 11,26 35,26 24,0 39,-15 33,-33 z m 1041,-76 c -113,-112 -118,-123 -111,-236 3,-37 -18,-97 -46,-132 -76,-98 -92,-172 -46,-210 23,-19 41,-68 41,-110 0,-42 11,-76 25,-76 15,0 19,-35 10,-79 -11,-59 -4,-83 28,-95 23,-9 43,-45 43,-80 0,-39 15,-64 39,-64 50,0 51,29 2,95 -32,44 -32,57 -1,92 22,24 41,117 47,225 5,107 29,221 56,273 28,54 41,119 32,162 -9,46 6,109 39,171 103,193 8,231 -158,64 z m -1656,55 c -29,-12 -84,-22 -122,-23 -76,-3 -171,-89 -144,-133 10,-15 65,-28 123,-28 58,0 142,-19 186,-41 108,-56 193,-41 204,36 15,107 -145,230 -247,189 z m 877,-16 c -34,-35 -16,-76 49,-106 75,-35 75,-36 40,55 -25,68 -55,84 -89,51 z m -1711,-114 c 0,-15 12,-28 27,-28 14,0 26,6 26,12 0,6 -12,19 -26,28 -15,9 -27,4 -27,-12 z m 3188,-35 c -11,-26 -13,-55 -4,-64 27,-27 49,11 36,63 -11,46 -12,46 -32,1 z m -2916,-142 c -77,-83 -75,-115 7,-115 36,0 66,-11 66,-26 0,-14 -13,-27 -27,-27 -15,0 -26,-10 -26,-23 0,-13 51,-24 112,-24 62,-1 158,-9 212,-19 122,-23 125,0 13,97 -78,67 -81,77 -39,103 25,15 46,39 46,53 0,49 -86,24 -137,-41 -49,-62 -177,-98 -141,-40 9,15 40,26 68,26 71,0 65,70 -8,90 -78,20 -77,21 -146,-54 z m -1091,-380 c 0,-14 11,-26 26,-26 14,0 27,12 27,26 0,15 -13,27 -27,27 -15,0 -26,-12 -26,-27 z m -2196,-170 c 0,-37 11,-68 26,-68 14,0 27,23 27,52 0,28 -12,58 -27,67 -15,10 -26,-13 -26,-51 z m 6400,4 c -65,-35 -135,-97 -156,-140 -40,-79 -75,-487 -41,-487 30,0 120,113 161,205 21,47 54,86 73,86 19,0 61,28 94,63 47,50 57,88 51,189 -5,70 -21,131 -37,136 -15,5 -80,-18 -145,-52 z m 416,-416 c 21,0 77,-29 124,-65 54,-41 106,-60 140,-50 47,12 58,-1 73,-81 13,-69 32,-95 69,-95 47,0 105,71 105,127 0,57 -201,270 -254,270 -45,0 -60,21 -73,105 -18,110 -75,158 -235,196 -67,16 -73,12 -73,-64 0,-123 80,-343 124,-343 z m -6737,237 c 0,-47 11,-74 27,-65 14,9 26,46 26,81 0,36 -12,65 -26,65 -15,0 -27,-37 -27,-81 z m 5903,-262 c -49,-87 -58,-138 -51,-296 4,-105 20,-194 35,-200 16,-5 56,54 89,131 46,106 58,172 49,279 -15,191 -49,215 -122,86 z m 5374,-178 c -71,-14 -83,-126 -22,-208 37,-51 38,-51 55,1 42,127 49,125 67,-19 10,-83 36,-178 58,-212 22,-33 48,-99 59,-146 36,-167 128,-57 94,113 -30,153 -101,441 -111,450 -18,20 -145,32 -200,21 z m -11293,-73 c -21,-54 -3,-127 34,-140 34,-11 57,62 40,132 -14,56 -54,61 -74,8 z m 7911,-193 c -9,-40 -33,-111 -54,-156 -56,-126 -51,-573 7,-631 40,-40 41,-71 15,-298 -17,-140 -20,-267 -8,-282 12,-15 29,-81 38,-147 45,-319 63,-399 105,-444 48,-54 60,-231 18,-257 -34,-20 -35,-137 -3,-157 42,-26 31,-358 -15,-446 -27,-52 -37,-120 -28,-194 8,-74 -1,-132 -25,-168 -40,-57 -14,-74 37,-24 16,16 42,21 58,12 19,-12 11,-52 -25,-121 -29,-57 -52,-127 -52,-154 0,-28 -18,-66 -40,-84 -22,-18 -40,-49 -40,-69 0,-51 -107,-249 -135,-249 -13,0 -23,-21 -23,-47 0,-25 -36,-86 -80,-134 -88,-96 -99,-136 -40,-136 22,0 40,18 40,40 0,21 18,39 40,39 22,0 40,17 40,37 0,20 41,81 92,137 51,56 93,117 93,137 0,19 18,42 39,50 22,8 41,35 41,59 0,24 18,66 40,95 21,28 38,78 38,111 0,32 11,65 23,73 20,12 67,552 64,743 -7,440 -26,680 -57,699 -27,17 -30,70 -15,228 18,195 16,208 -42,251 -48,37 -59,67 -53,149 20,278 4,524 -37,554 -33,24 -41,87 -41,323 0,166 11,299 26,309 34,21 35,225 1,225 -15,0 -34,-33 -42,-73 z m -2196,-152 c -20,-107 7,-330 40,-330 40,0 50,70 35,234 -17,189 -50,231 -75,96 z m -5778,-12 c 0,-28 11,-59 26,-68 15,-9 26,-64 26,-123 0,-58 17,-137 38,-176 21,-39 44,-91 52,-116 8,-26 27,-47 43,-47 52,0 62,88 17,166 -24,42 -44,116 -44,163 0,52 -20,104 -53,133 -29,27 -53,64 -53,84 0,19 -11,35 -26,35 -15,0 -26,-23 -26,-51 z m 2556,-68 c -22,-22 -86,-39 -145,-39 -124,0 -195,-23 -174,-56 20,-32 295,-30 316,3 9,14 32,26 52,26 20,0 70,13 110,28 59,22 66,33 35,53 -58,37 -149,30 -194,-15 z m -612,-171 c 9,-14 28,-26 41,-26 14,0 25,11 25,26 0,14 -18,27 -41,27 -23,0 -34,-12 -25,-27 z m 10465,-11 c -1,-28 5,-43 14,-34 9,8 10,31 2,50 -8,21 -15,15 -16,-16 z m -10392,-68 c -49,-77 -43,-82 77,-63 79,13 104,10 91,-12 -11,-17 -33,-31 -51,-31 -17,0 -47,-25 -66,-55 -31,-50 -50,-53 -205,-36 -155,16 -170,14 -170,-31 1,-88 36,-106 211,-111 163,-4 178,1 275,88 56,51 115,93 132,93 16,0 8,18 -19,38 -57,43 -37,93 37,93 29,0 52,18 52,40 0,31 -36,40 -166,40 -137,0 -171,-9 -198,-53 z m 3686,-165 c -5,-19 -25,-81 -45,-139 -21,-62 -37,-215 -37,-365 0,-196 -9,-265 -38,-282 -30,-19 -31,-32 -7,-62 24,-29 23,-55 -7,-115 -34,-68 -34,-94 2,-217 62,-209 101,-162 116,143 7,145 24,279 36,298 36,56 52,772 18,772 -16,0 -33,-15 -38,-33 z m 3344,-205 c 0,-30 12,-53 26,-53 15,0 27,23 27,53 0,29 -12,52 -27,52 -14,0 -26,-23 -26,-52 z m -7235,-292 c 9,-14 40,-26 69,-26 29,0 46,12 37,26 -9,15 -41,27 -70,27 -30,0 -45,-12 -36,-27 z m 2646,-132 c -9,-14 5,-56 31,-92 62,-85 202,-84 215,1 12,84 -202,163 -246,91 z m -2765,-63 c 0,-34 19,-78 41,-97 23,-19 39,-65 35,-102 -8,-92 23,-179 71,-198 50,-19 50,-122 0,-122 -39,0 -94,-77 -94,-131 0,-15 18,-28 41,-28 22,0 47,-18 55,-39 25,-64 239,-54 274,13 24,45 18,58 -38,84 -69,31 -85,86 -44,150 15,24 1,75 -40,146 -71,126 -80,216 -23,238 64,24 45,70 -28,70 -38,0 -86,18 -108,39 -63,64 -142,51 -142,-23 z m 2460,-295 c -50,-60 3,-100 136,-103 137,-2 160,45 47,101 -106,53 -140,53 -183,2 z m 5310,-184 c -42,-243 -9,-560 44,-421 21,53 16,344 -8,447 l -18,80 z m -5230,-119 c 0,-44 11,-80 26,-80 14,0 27,36 27,80 0,43 -13,79 -27,79 -15,0 -26,-36 -26,-79 z m -1627,-185 c -20,-32 5,-80 41,-80 32,0 32,72 0,92 -13,8 -32,3 -41,-12 z m 7277,-1240 c -22,-36 82,-92 134,-72 22,8 65,-3 96,-25 32,-21 72,-39 91,-39 52,0 40,62 -20,100 -75,46 -279,71 -301,36 z m -583,-57 c -77,0 -158,-111 -114,-155 44,-44 61,-38 94,36 17,36 49,66 72,66 23,0 67,24 98,53 l 57,53 h -57 c -31,0 -63,-12 -72,-26 -9,-15 -44,-27 -78,-27 z m -332,-248 c 0,-20 -17,-50 -38,-68 -61,-50 -81,-282 -31,-358 23,-36 42,-81 42,-101 0,-21 24,-59 53,-85 29,-26 53,-64 53,-83 0,-50 51,-45 71,8 10,25 -1,56 -27,75 -24,18 -44,53 -44,78 0,26 -20,81 -45,123 -38,64 -40,90 -13,164 38,107 42,283 5,283 -14,0 -26,-16 -26,-36 z m 1124,-17 c -9,-14 2,-26 25,-26 23,0 41,11 41,26 0,14 -11,27 -25,27 -13,0 -32,-12 -41,-27 z m -871,-393 c -11,-18 -13,-41 -5,-49 24,-24 50,11 37,49 -9,27 -15,27 -32,0 z m -4412,-124 c -20,-20 331,-382 371,-382 14,0 30,-9 35,-20 12,-27 226,-215 337,-298 50,-36 132,-105 183,-152 51,-48 111,-86 135,-86 23,0 95,-47 161,-106 110,-98 238,-140 238,-79 0,15 14,27 32,27 23,0 24,-8 2,-30 -22,-22 -16,-55 24,-126 88,-159 124,-187 216,-172 155,27 157,29 105,119 -27,45 -63,88 -81,95 -19,7 -33,53 -33,100 0,102 67,145 118,76 19,-27 50,-38 76,-28 64,25 54,52 -38,104 -99,57 -183,60 -183,8 0,-32 -24,-36 -118,-23 -96,13 -122,7 -136,-27 -23,-62 -71,-54 -143,23 -34,36 -83,66 -110,66 -26,0 -49,17 -49,39 0,21 -10,40 -24,40 -13,0 -69,42 -123,93 -54,51 -112,92 -129,92 -18,0 -60,30 -94,66 -34,37 -77,67 -96,67 -19,0 -48,24 -64,55 -16,30 -70,72 -120,93 -50,21 -90,47 -90,59 0,13 -40,44 -87,70 -48,26 -99,72 -113,103 -13,31 -48,60 -77,66 -28,5 -64,27 -80,48 -15,21 -35,30 -45,20 z m 1672,-1255 c 0,-15 -12,-27 -27,-27 -14,0 -26,12 -26,27 0,14 12,26 26,26 15,0 27,-12 27,-26 z m 68,-125 c -8,-9 -15,7 -13,34 1,31 7,38 16,16 7,-19 6,-42 -3,-50 z m 1598,1290 c 0,-16 13,-28 27,-28 15,0 26,5 26,12 0,6 -12,19 -26,28 -15,9 -27,3 -27,-12 z m 1006,-252 c 14,-9 26,2 26,24 v 62 c 0,10 -12,23 -26,28 -15,5 -27,-15 -27,-45 0,-29 12,-60 27,-69 z m 688,12 c 0,-15 18,-34 39,-43 56,-21 178,13 159,45 -22,34 -198,33 -198,-2 z m -294,-75 c -77,-63 -79,-185 -5,-350 42,-95 80,-134 172,-179 150,-72 179,-71 259,15 l 66,70 -66,-20 c -171,-52 -176,-50 -238,51 -33,53 -63,117 -65,141 -3,24 -14,77 -26,118 -16,57 -11,82 26,108 49,36 33,95 -26,95 -20,0 -63,-22 -97,-49 z m 522,-70 c -17,-45 -129,-52 -204,-12 -59,32 -157,-8 -157,-63 0,-53 149,-150 229,-150 133,0 307,164 258,243 -23,37 -110,24 -126,-18 z m -784,-78 c 0,-7 12,-19 27,-28 14,-9 26,-4 26,12 0,15 -11,28 -26,28 -14,0 -27,-6 -27,-12 z m -883,-60 c -53,-53 85,-272 171,-272 27,0 28,7 3,32 -30,30 -46,153 -20,153 7,0 45,-30 85,-67 57,-53 95,-66 177,-60 117,9 184,77 130,131 -25,25 -44,21 -86,-17 -54,-48 -56,-48 -132,35 -82,90 -129,104 -181,52 -25,-25 -44,-25 -82,-2 -27,17 -56,24 -65,15 z m -225,-115 c -49,-47 -57,-74 -43,-157 14,-83 7,-110 -42,-155 -56,-53 -57,-58 -14,-106 25,-28 48,-79 51,-115 11,-131 489,-592 593,-571 63,12 71,65 12,81 -28,7 -68,47 -87,88 -20,41 -78,103 -129,137 -51,34 -103,85 -117,113 -13,29 -39,52 -58,52 -47,0 -40,186 7,204 45,17 46,119 3,162 -25,25 -25,43 0,84 18,29 33,58 33,66 0,28 -103,11 -117,-20 -8,-18 -8,-3 2,33 40,157 5,195 -94,104 z m 953,-104 c 120,-112 189,-114 176,-3 -6,52 -29,75 -94,95 -47,14 -86,34 -86,46 0,11 -23,21 -53,21 -29,0 -52,-13 -52,-29 0,-15 49,-74 109,-130 z m 936,-27 c -21,-34 53,-63 107,-42 53,20 24,69 -41,69 -28,0 -57,-12 -66,-27 z m 211,-79 c -9,-14 9,-26 40,-26 31,0 49,12 40,26 -9,15 -27,27 -40,27 -13,0 -31,-12 -40,-27 z m -1719,-471 c -35,-35 -8,-107 46,-121 33,-8 103,-54 155,-102 366,-330 447,-387 447,-311 0,52 55,25 79,-40 29,-75 27,-74 278,-81 102,-3 208,-9 235,-15 87,-17 80,57 -7,90 -83,31 -107,81 -55,113 36,22 201,-56 219,-103 17,-46 257,-75 304,-37 19,16 83,30 142,31 92,2 121,17 189,101 86,107 80,153 -15,105 -251,-125 -434,-149 -525,-69 -23,20 -66,37 -96,37 -29,0 -70,19 -89,43 -28,33 -63,38 -168,24 -73,-9 -145,-27 -160,-38 -31,-24 -305,-22 -345,3 -14,9 -70,25 -124,35 -63,11 -104,36 -115,69 -8,27 -50,68 -93,90 -42,22 -96,68 -118,103 -39,58 -153,104 -184,73 z m 899,-534 c 9,-15 -9,-27 -40,-27 -30,0 -48,12 -39,27 9,14 27,26 39,26 13,0 31,-12 40,-26 z m -1933,491 c -49,-36 -47,-42 58,-143 81,-78 117,-98 139,-76 48,48 34,138 -32,200 -72,67 -96,70 -165,19 z m 782,-329 c 0,-34 123,-109 178,-109 37,0 29,15 -32,65 -81,66 -146,86 -146,44 z m 71,-268 c 88,0 1,-40 -143,-66 -169,-30 -208,-78 -84,-102 194,-39 447,-4 447,62 0,42 -105,136 -132,119 -14,-8 -49,-2 -79,13 -36,20 -53,20 -53,1 0,-15 20,-27 44,-27 z m 2125,-185 c -29,-29 -77,-53 -106,-53 -31,0 -63,-25 -77,-60 -24,-64 -218,-231 -267,-231 -17,0 -61,-24 -98,-53 -37,-29 -84,-53 -104,-53 -20,0 -36,-28 -36,-66 0,-36 -11,-66 -25,-66 -38,0 -58,47 -28,66 15,9 21,28 13,41 -26,41 -59,28 -73,-29 -12,-42 -29,-50 -80,-37 -37,9 -90,3 -120,-12 -92,-50 -184,-294 -110,-294 45,0 29,-121 -22,-168 -27,-24 -86,-43 -133,-43 -86,0 -188,-44 -221,-96 -11,-16 -76,-50 -146,-77 -149,-56 -267,-160 -227,-200 18,-18 37,-13 60,14 20,24 76,41 135,41 66,0 110,15 125,42 15,27 60,43 122,43 61,0 105,14 113,37 8,20 37,37 65,37 28,0 58,18 67,39 8,22 31,40 51,40 20,0 93,53 161,119 69,65 143,120 166,120 59,1 135,70 274,251 137,179 237,277 280,277 16,0 30,12 30,27 0,14 24,26 54,26 37,0 66,30 93,93 24,58 57,93 86,93 61,0 175,118 151,156 -28,46 -115,33 -173,-24 z m -820,-594 c 0,-19 -123,-147 -142,-147 -32,0 -16,76 25,117 38,38 117,58 117,30 z m 42,-140 c -8,-9 -15,7 -13,35 1,31 7,37 16,16 7,-19 6,-42 -3,-51 z m -227,-47 c 0,-22 -12,-39 -27,-39 -14,0 -26,17 -26,39 0,21 12,40 26,40 15,0 27,-19 27,-40 z m -2007,734 c -50,-17 -35,-69 52,-187 77,-105 258,-216 351,-216 22,0 47,-12 56,-26 9,-15 48,-26 88,-24 l 71,3 -73,29 c -40,15 -73,48 -73,71 0,24 -35,77 -79,119 -98,94 -101,125 -10,114 67,-8 147,62 112,97 -17,17 -450,35 -495,20 z m 911,-30 c -19,-29 59,-61 96,-39 17,10 13,25 -9,39 -47,30 -69,30 -87,0 z m 71,-152 c -45,-18 7,-115 61,-115 49,0 170,77 170,109 0,24 -174,29 -231,6 z m 327,-181 c -8,-22 -30,-40 -49,-40 -50,0 -105,-101 -86,-160 10,-33 40,-52 81,-52 85,0 81,-25 -19,-127 -46,-47 -78,-91 -71,-98 20,-20 265,117 302,168 18,24 37,38 43,31 80,-104 99,-161 68,-210 -18,-29 -24,-60 -14,-70 25,-25 151,99 151,150 1,23 31,69 67,104 76,71 85,126 22,150 -28,11 -61,-4 -92,-43 l -48,-59 -31,68 c -18,38 -49,69 -70,69 -21,0 -83,35 -138,79 -81,64 -103,72 -116,40 z m -995,-209 c 0,-40 55,-69 134,-69 28,0 51,-10 51,-22 0,-13 41,-45 92,-72 86,-47 96,-47 136,-7 69,69 27,127 -92,127 -60,0 -117,17 -136,40 -42,51 -185,53 -185,3 z m 555,-553 c -57,-29 -145,-198 -117,-227 4,-5 60,14 122,44 63,29 160,59 217,68 135,19 148,37 69,98 -76,58 -196,65 -291,17 z"
     id="path1807"
     style="display:inline" /></g></svg>
